<svg data-v-0dd9719b="" version="1.0" xmlns="http://www.w3.org/2000/svg" xmlns:xlink="http://www.w3.org/1999/xlink" width="100%" height="100%" viewBox="0 0 340.000000 250.000000" preserveAspectRatio="xMidYMid meet" color-interpolation-filters="sRGB" style="margin: auto;"> <rect data-v-0dd9719b="" x="0" y="0" width="100%" height="100%" fill="#ffffff" fill-opacity="1" class="background"></rect> <rect data-v-0dd9719b="" x="0" y="0" width="100%" height="100%" fill="url(#watermark)" fill-opacity="1" class="watermarklayer"></rect> <g data-v-0dd9719b="" fill="#333" class="icon-text-wrapper icon-svg-group iconsvg" transform="translate(72.19499969490275,97.49945068359375)"><g class="iconsvg-imagesvg" transform="translate(0,0)"><g><rect fill="#333" fill-opacity="0" stroke-width="2" x="0" y="0" width="55" height="55.00110002200044" class="image-rect"></rect> <svg x="0" y="0" width="55" height="55.00110002200044" filtersec="colorsb5088048543" class="image-svg-svg primary" style="overflow: visible;"><svg xmlns="http://www.w3.org/2000/svg" viewBox="-0.0019585678819566965 0.0002686096995603293 163.05958557128906 163.06222534179688"><title>36</title><path d="M130.42 32.48a91.37 91.37 0 0 1-59.82 34c-22.55 3-33.09-7.69-30-28.18 4.14-27.72 37.76-38.23 77-29.87A81.57 81.57 0 0 0 .84 93.3a82.71 82.71 0 0 0 45.64 12.87 84.74 84.74 0 0 0 83.94-73.69" fill="#e37315"></path><path d="M130.42 32.48a91.37 91.37 0 0 1-59.82 34c-22.55 3-33.09-7.69-30-28.18 4.14-27.72 37.76-38.23 77-29.87a81.17 81.17 0 0 0-65-3.08c-16.6 8-25 21.43-27.85 34.92C17.08 77.08 43 93.57 77.1 83.86c19.23-5.47 40-20.46 53.32-51.38" fill="#efefeb" fill-rule="evenodd" opacity=".05"></path><path d="M136.67 36.75A91.56 91.56 0 0 1 46.48 113a90.92 90.92 0 0 1-43.93-11.18A82 82 0 0 0 27.94 143c17.24 4.35 42.35 5.1 64.39-5.54a84.75 84.75 0 0 0 44.34-100.7" fill="#016737" fill-rule="evenodd"></path><path d="M136.67 36.75A91.56 91.56 0 0 1 46.48 113a90.92 90.92 0 0 1-43.93-11.18A82 82 0 0 0 27.94 143c17.24 4.35 42.35 5.1 64.39-5.54a84.75 84.75 0 0 0 44.34-100.7" fill="#016737"></path><path d="M136.67 36.75A91.56 91.56 0 0 1 46.48 113a90.92 90.92 0 0 1-43.93-11.18 81.83 81.83 0 0 0 8.38 20.48 83.88 83.88 0 0 0 2.66 4.3c43.15 12.15 117.41-5.8 123.08-89.85" fill="#efefeb" fill-rule="evenodd" opacity=".05"></path><path d="M139.1 23.79a91.55 91.55 0 0 1-99.87 127.45A81.54 81.54 0 0 0 139.1 23.79" fill="#039"></path></svg></svg> <!----></g></g> <g transform="translate(62,6.764299392700195)"><g data-gra="path-name" fill-rule="" class="tp-name iconsvg-namesvg" transform="translate(0,0)"><g transform="scale(1)"><g><path d="M0.73-0.07L13.31-16.65 0.7-16.65 0.7-20.43 15-20.43 15-26.37 19.91-26.37 19.91-20.43 32.79-20.43 32.79-16.65 19.4-16.65 17.6-14.27 22.04-14.27 33.01-0.11 27.07-0.11 16.83-13.28 6.86-0.07 0.73-0.07ZM39.5-26.48L42.03-22.01 37.19-22.01 34.66-26.48 39.5-26.48ZM66.6-3.34L66.6 0.04 40.49 0.04 39.06-1.72 38.55 0.04 34.62 0.04 37.7-9.43 34.62-9.43 34.69-9.61 37.81-17.53 34.62-17.53 34.62-20.91 42.14-20.91 42.73-20.91 39.65-12.8 42.14-12.8 40.45-6.78 43.13-3.34 52.92-3.34 52.92-6.45 43.53-6.45 43.53-10.09 52.92-10.09 52.92-12.32 47.82-12.32 44.38-12.32 43.31-12.32 45.92-21.02 43.28-21.02 43.28-24.65 47.02-24.65 47.57-26.48 52.08-26.48 51.53-24.65 64.92-24.65 64.92-21.02 50.43-21.02 48.89-15.95 52.92-15.95 52.92-18.41 57.21-18.41 57.21-15.95 64.92-15.95 64.92-12.32 57.21-12.32 57.21-10.09 64.92-10.09 64.92-6.45 57.21-6.45 57.21-3.34 66.6-3.34ZM81.82 0L81.82-4.36 68.25-4.36 68.25-7.96 81.82-7.96 81.82-11.3 86.92-11.3 86.92-7.96 100.38-7.96 100.38-4.36 86.92-4.36 86.92 0 81.82 0ZM68.22-19.29L68.22-23.25 80.91-26.33 80.91-22.34 77.5-21.53 77.5-12.14 72.4-12.14 72.4-20.28 68.22-19.29ZM100.45-12.14L89.74-12.14Q88.9-12.14 88.17-12.45 87.43-12.76 86.88-13.31 86.33-13.86 86.02-14.6 85.71-15.33 85.71-16.17L85.71-16.17 85.71-17.79 80.58-17.05 80.58-21.09 85.71-21.82 85.71-26.41 90.81-26.41 90.81-22.56 100.45-23.95 100.45-19.91 90.81-18.52 90.81-16.91Q90.81-16.43 91.14-16.1 91.47-15.77 91.95-15.77L91.95-15.77 100.45-15.77 100.45-12.14ZM123.01-26.44L134.31-26.44 131.52-20.79 133.39-20.79 133.39-15.48Q133.39-14.74 133.11-14.12 132.84-13.5 132.38-13.04 131.92-12.58 131.28-12.3 130.64-12.03 129.94-12.03L129.94-12.03 124.33-12.03 125.72-15.18 127.26-15.18Q127.7-15.18 128-15.5 128.29-15.81 128.29-16.25L128.29-16.25 128.29-18.08 124.62-18.08 127.78-23.36 111.09-23.36 108.05-12.1 102.62-12.1 105.66-23.36 101.85-23.36 101.85-26.44 123.01-26.44ZM134.05-3.19L134.05 0.04 101.85 0.04 101.85-3.19 102.54-3.19 102.54-10.89 129.94-10.89Q130.64-10.89 131.28-10.62 131.92-10.34 132.38-9.88 132.84-9.43 133.11-8.78 133.39-8.14 133.39-7.45L133.39-7.45 133.39-3.19 134.05-3.19ZM128.29-3.19L128.29-6.53Q128.29-7.01 127.96-7.35 127.63-7.7 127.15-7.7L127.15-7.7 124.7-7.7 124.7-3.19 128.29-3.19ZM119.6-3.19L119.6-7.7 116.3-7.7 116.3-3.19 119.6-3.19ZM107.61-7.7L107.61-3.19 111.24-3.19 111.24-7.7 107.61-7.7ZM124.04-19.69L124.04-19.66Q123.38-18.59 122.48-17.66 121.58-16.72 120.52-15.92L120.52-15.92Q121.32-15.62 122.15-15.39 122.97-15.15 123.82-14.96L123.82-14.96 123.82-12.1Q122.2-12.32 120.57-12.82 118.94-13.31 117.36-14.05L117.36-14.05Q115.82-13.31 114.17-12.82 112.52-12.32 110.91-12.1L110.91-12.1 110.91-14.96Q111.79-15.15 112.61-15.39 113.44-15.62 114.24-15.92L114.24-15.92Q113.33-16.58 112.56-17.35 111.79-18.12 111.16-19L111.16-19 115.49-19Q116.37-18.12 117.36-17.46L117.36-17.46Q118.79-18.41 119.89-19.69L119.89-19.69 110.87-19.69 110.87-22.15 124.04-22.15 124.04-20.79 124.04-19.69Z" transform="translate(-0.699999988079071, 26.479999542236328)"></path></g> <!----> <!----> <!----> <!----> <!----> <!----> <!----></g></g> <g data-gra="path-slogan" fill-rule="" class="tp-slogan iconsvg-slogansvg" fill="#333" transform="translate(5,33.52000045776367)"><rect x="0" height="1" y="3.9750003814697266" width="9.235000610351562"></rect> <rect height="1" y="3.9750003814697266" width="9.235000610351562" x="114.375"></rect> <g transform="translate(12.235000610351562,0)"><g transform="scale(1)"><path d="M4.41 0L0.94 0L0.94-8.58L4.45-8.58Q7.92-8.39 8.06-4.41L8.06-4.41Q7.88-0.09 4.41 0L4.41 0ZM4.27-7.64L2.11-7.64L2.11-0.98L4.36-0.98Q6.80-1.13 6.89-4.31L6.89-4.31Q6.84-7.55 4.27-7.64L4.27-7.64ZM15.19 0L14.34-2.48L10.88-2.48L9.98 0L8.81 0L12.05-8.58L13.36-8.58L16.45 0L15.19 0ZM12.61-7.31L11.25-3.52L13.92-3.52L12.66-7.31L12.61-7.31ZM17.48-8.58L18.66-8.58L18.66-1.03L23.02-1.03L23.02 0L17.48 0L17.48-8.58ZM24.33-8.58L25.50-8.58L25.50 0L24.33 0L24.33-8.58ZM33.14 0L32.30-2.48L28.83-2.48L27.94 0L26.77 0L30-8.58L31.31-8.58L34.41 0L33.14 0ZM30.56-7.31L29.20-3.52L31.88-3.52L30.61-7.31L30.56-7.31ZM36.84-8.58L41.16-1.64L41.16-8.58L42.28-8.58L42.28 0L40.97 0L36.61-6.94L36.56-6.94L36.56 0L35.44 0L35.44-8.58L36.84-8.58ZM48.56-5.06L53.06-5.06L53.06-8.58L54.23-8.58L54.23 0L53.06 0L53.06-3.98L48.56-3.98L48.56 0L47.39 0L47.39-8.58L48.56-8.58L48.56-5.06ZM61.69-3.19L61.69-8.58L62.86-8.58L62.86-3.05Q62.72 0.05 59.34 0.14L59.34 0.14Q56.20 0.05 56.06-2.86L56.06-2.86L56.06-8.58L57.23-8.58L57.23-3.19Q57.28-0.84 59.39-0.80L59.39-0.80Q61.69-0.84 61.69-3.19L61.69-3.19ZM70.31 0L69.47-2.48L66-2.48L65.11 0L63.94 0L67.17-8.58L68.48-8.58L71.58 0L70.31 0ZM67.73-7.31L66.38-3.52L69.05-3.52L67.78-7.31L67.73-7.31ZM79.55-8.58L76.31-3.47L76.31 0L75.14 0L75.14-3.47L71.91-8.58L73.27-8.58L75.70-4.45L78.19-8.58L79.55-8.58ZM80.77-8.58L81.94-8.58L81.94 0L80.77 0L80.77-8.58ZM85.31-8.58L89.63-1.64L89.63-8.58L90.75-8.58L90.75 0L89.44 0L85.08-6.94L85.03-6.94L85.03 0L83.91 0L83.91-8.58L85.31-8.58ZM98.95-3.61L96.33-3.61L96.33-4.59L100.08-4.59L100.08 0L99.33 0L99.05-1.08Q98.06 0.09 96.23 0.14L96.23 0.14Q94.50 0.14 93.56-0.75L93.56-0.75Q92.16-2.06 92.20-4.36L92.20-4.36Q92.53-8.63 96.28-8.81L96.28-8.81Q99.47-8.63 99.94-6L99.94-6L98.81-6Q98.34-7.78 96.23-7.83L96.23-7.83Q93.56-7.64 93.42-4.31L93.42-4.31Q93.42-0.75 96.28-0.75L96.28-0.75Q97.31-0.75 98.06-1.31L98.06-1.31Q99-2.06 98.95-3.61L98.95-3.61Z" transform="translate(-0.9375, 8.8125)"></path></g></g></g></g></g><defs v-gra="od"></defs></svg>